<svg xmlns="http://www.w3.org/2000/svg" xmlns:xlink="http://www.w3.org/1999/xlink" width="60" height="37" viewBox="0 0 60 37">
    <defs>
        <path id="a" d="M0 36.353h59.97V.093H0z"/>
    </defs>
    <g fill="none" fill-rule="evenodd">
        <mask id="b" fill="#fff">
            <use xlink:href="#a"/>
        </mask>
        <path fill="#FFF" d="M20.937.891C9.392.891 0 6.727 0 13.901c0 7.172 9.392 13.008 20.937 13.008 11.543 0 20.936-5.836 20.936-13.009S32.48.891 20.937.891zm-3.609 18.113h5.002l1.758 6.311c-1.041.133-2.1.21-3.151.21-1.782 0-3.54-.196-5.236-.57l1.627-5.95zm.505-1.845l1.972-7.214 2.01 7.214h-3.982zM19.84 2.306l-4.001 14.53L12.09 3.967c2.341-.971 5.013-1.542 7.75-1.661zm1.87-.009c2.75.084 5.44.622 7.807 1.564l-3.565 12.964c-.235-.805-4.14-14.177-4.241-14.528zm6.24 14.862l1.96-7.213 2.01 7.213h-3.97zm-.916 3.372l.415-1.527h4.985l.816 2.923c-1.465 1.043-3.174 1.879-5.081 2.49l-1.135-3.886zm9.523-1.993c-.164-.556-3.597-12.318-3.795-12.995 3.32 2.186 5.23 5.21 5.23 8.357 0 1.612-.494 3.169-1.435 4.638zM13.656 24.4c-2.752-.889-5.108-2.254-6.823-3.97.038-.138.346-1.26.39-1.426h4.956l1.477 5.396zm-5.928-7.24l1.97-7.211c.226.82 1.891 6.904 1.976 7.21H7.728zM8.783 5.766L5.282 18.48c-.919-1.453-1.402-2.99-1.402-4.58 0-3.074 1.746-5.945 4.903-8.134z" mask="url(#b)"/>
        <path fill="#FFF" d="M17.863 33.112c-6.728 2.347-11.376 2.654-12.432.823-.927-1.606.943-4.79 5.13-8.74a24.65 24.65 0 0 1-2.259-.93c-5.18 4.805-7.39 8.563-6.22 10.593 1.389 2.406 7.209 1.91 15.968-1.357l.162-.062-.253-.361-.096.034zM59.667 1.587C57.933-1.418 49.1.19 37.155 5.684c.69.525 1.316 1.084 1.87 1.673 8.843-3.71 15.373-4.674 16.654-2.453 1.556 2.696-4.615 9.468-15.007 16.466l-.131.09.3.322.095-.062c12.988-8.458 20.69-16.736 18.731-20.133z" mask="url(#b)"/>
    </g>
</svg>
